PathFileType	4	(X/Y/Z)	C:\Users\Basilio\Documents\Thesis Gigler\squatting_fais\c3dfiles\019\SLS_front_pre5\markers_experimental.trc
DataRate	CameraRate	NumFrames	NumMarkers	Units	OrigDataRate	OrigDataStartFrame	OrigNumFrames
200.000000	200.000000	4	59	mm	200.000000	382	1531
Frame#	Time	FHD			LBHD			RBHD			C7			T10			CLAV			LSHO			LUUPA			LMUPA			LDUPA			LLEP			LMEP			LRAD			LUL			LRFIN			RSHO			RUPA1			RMUPA			RDUPA			RLEP			RMEP			RRAD			RUL			RUFIN			LASI			RASI			USACR			LSACR			RSACR			LTHI1			LTHI2			LTHI3			LTHI4			LLFC			LTIB1			LTIB2			LTIB3			LTIB4			LLMAL			LMMAL			LHEE			LMT1			LMT2			LMT5			RTHI3			RTHI4			RLFC			RTIB1			RTIB2			RTIB3			RTIB4			RLMAL			RMMAL			RHEE			RMT1			RMT2			RMT5			RTHI			RTHI2			
		X1	Y1	Z1	X2	Y2	Z2	X3	Y3	Z3	X4	Y4	Z4	X5	Y5	Z5	X6	Y6	Z6	X7	Y7	Z7	X8	Y8	Z8	X9	Y9	Z9	X10	Y10	Z10	X11	Y11	Z11	X12	Y12	Z12	X13	Y13	Z13	X14	Y14	Z14	X15	Y15	Z15	X16	Y16	Z16	X17	Y17	Z17	X18	Y18	Z18	X19	Y19	Z19	X20	Y20	Z20	X21	Y21	Z21	X22	Y22	Z22	X23	Y23	Z23	X24	Y24	Z24	X25	Y25	Z25	X26	Y26	Z26	X27	Y27	Z27	X28	Y28	Z28	X29	Y29	Z29	X30	Y30	Z30	X31	Y31	Z31	X32	Y32	Z32	X33	Y33	Z33	X34	Y34	Z34	X35	Y35	Z35	X36	Y36	Z36	X37	Y37	Z37	X38	Y38	Z38	X39	Y39	Z39	X40	Y40	Z40	X41	Y41	Z41	X42	Y42	Z42	X43	Y43	Z43	X44	Y44	Z44	X45	Y45	Z45	X46	Y46	Z46	X47	Y47	Z47	X48	Y48	Z48	X49	Y49	Z49	X50	Y50	Z50	X51	Y51	Z51	X52	Y52	Z52	X53	Y53	Z53	X54	Y54	Z54	X55	Y55	Z55	X56	Y56	Z56	X57	Y57	Z57	X58	Y58	Z58	X59	Y59	Z59	

383	1.91	-283.2381591796876	1723.468505859375	-637.6156005859376	-411.8619995117189	1687.089477539063	-779.4516601562502	-412.3883056640626	1677.028564453125	-639.8574829101564	-429.6831665039064	1505.329345703125	-704.4810791015626	-452.1427001953126	1214.250610351563	-707.6721801757814	-292.3677978515626	1465.688232421875	-713.9979858398439	-357.1683959960938	1511.739501953125	-848.5285644531252	-230.4066772460938	1486.360473632813	-903.993347167969	-205.2499237060547	1477.9189453125	-862.6750488281252	-163.7156524658203	1483.154296875	-905.9018554687502	-93.80962371826173	1456.982543945313	-941.303405761719	-95.76924896240236	1398.021240234375	-931.2868652343752	157.318588256836	1446.354248046875	-863.788269042969	153.5320281982422	1456.422119140625	-930.5622558593752	231.4646759033204	1452.217041015625	-862.7153930664065	-339.4533691406251	1501.575805664063	-581.9299316406251	-216.3448791503907	1431.760009765625	-484.5692138671876	-192.8559112548829	1458.823852539063	-518.2798461914064	-147.2337951660157	1427.24267578125	-484.9799804687501	-73.18376922607423	1425.540893554688	-497.7191162109376	-82.96655273437501	1365.90625	-511.5807189941407	164.0641021728516	1436.675903320313	-580.0250854492189	175.15185546875	1440.398071289063	-514.5767822265626	252.1318817138672	1447.483764648438	-579.4760742187501	-297.2163085937501	1022.106201171875	-843.3126220703127	-277.4332885742188	1002.920715332031	-634.5117187500001	-449.0686950683595	1082.2138671875	-718.0453491210939	-456.3128051757814	1051.834716796875	-748.8989257812501	-449.3096313476564	1048.423217773438	-691.6343994140626	-288.1585388183594	773.020202636719	-922.9138793945315	-231.3760681152344	708.9658203125001	-922.4351196289065	-189.2994384765625	726.0045776367189	-904.5159301757815	-241.3622131347657	649.7320556640626	-914.9213867187502	-230.0732574462891	555.1533813476564	-906.4272460937502	-207.3575286865235	408.4911193847657	-880.3228149414065	-273.5490722656251	381.2426452636719	-932.3542480468752	-238.1371459960938	369.1310424804688	-909.7021484375002	-258.3210449218751	290.5895385742188	-877.3936767578127	-356.1174316406251	180.9782867431641	-904.641540527344	-332.4181518554688	182.6541748046875	-823.1791992187502	-427.8748779296876	159.0288238525391	-851.8501586914065	-221.2085113525391	88.01767730712892	-838.8013305664065	-221.9964141845704	84.46536254882814	-880.6518554687502	-273.0348510742188	70.24534606933595	-929.5625000000002	-251.1690063476563	755.1456909179689	-611.1629638671876	-299.8898010253907	668.9944458007814	-592.6201782226564	-335.3443603515626	509.9419860839845	-635.4800415039064	-298.9823608398438	334.7574768066407	-712.5429077148439	-351.6825256347657	250.9796295166016	-662.5537719726564	-318.2856750488282	250.7243804931641	-696.6038208007814	-331.6331481933594	213.8943939208985	-740.8258056640626	-393.0891418457032	127.6660690307617	-703.7545166015626	-376.2315063476563	135.1646423339844	-777.4605102539065	-456.3414306640626	106.6166915893555	-755.7366333007814	-254.6782684326172	53.86231231689455	-775.8003540039065	-249.9491729736329	53.9132652282715	-734.5039672851564	-294.7833557128907	50.91724014282228	-677.3353271484376	-316.3827209472657	796.8853759765627	-576.0540161132814	-275.1641540527344	746.9500122070314	-586.8012695312501	
384	1.915	-283.2376098632813	1723.46728515625	-637.6144409179689	-411.882537841797	1687.014038085938	-779.302429199219	-412.4348144531251	1676.870239257813	-639.7325439453126	-429.6535644531251	1505.317993164063	-704.4108886718751	-452.3994445800782	1214.2822265625	-707.4426879882814	-292.4240722656251	1465.66455078125	-713.9180297851564	-357.2811279296876	1511.7587890625	-848.482360839844	-230.4514617919922	1486.24365234375	-903.9670410156252	-205.3268127441407	1477.763305664063	-862.6429443359377	-163.7337951660157	1482.993774414063	-905.8723754882815	-93.9822463989258	1456.779663085938	-941.3092041015627	-95.9086151123047	1397.814453125	-931.2925415039065	157.1914367675782	1446.333618164063	-863.6770019531252	151.8311157226563	1455.68212890625	-930.7910766601565	231.3891601562501	1451.9267578125	-862.799987792969	-339.4945068359376	1501.59619140625	-581.8917846679689	-216.2665252685547	1431.777954101563	-484.5428466796876	-192.7467956542969	1458.801879882813	-518.1903686523439	-147.152816772461	1427.162109375	-484.933563232422	-73.11640930175783	1425.429321289063	-497.735565185547	-82.97489166259767	1365.794677734375	-511.5510253906251	164.0880889892578	1436.365844726563	-580.0155029296876	175.1859130859375	1440.107299804688	-514.7008666992189	252.1602478027344	1447.14794921875	-579.5960083007814	-297.6885681152344	1022.119201660156	-843.1676025390627	-277.7091674804688	1002.784545898438	-634.3537597656251	-449.4483947753907	1082.177490234375	-717.8289794921876	-456.5736389160157	1051.859252929688	-748.6333618164064	-449.6489868164064	1048.50830078125	-691.3546142578126	-288.3157348632813	773.127868652344	-922.8433837890627	-231.4576416015626	709.2591552734376	-922.189880371094	-189.4869384765625	726.2749023437501	-904.2910156250002	-241.3232574462891	649.9599609375001	-914.7343750000002	-229.7812805175782	555.3468017578126	-906.2568359375002	-208.0773162841797	409.0630493164064	-878.9952392578127	-272.6292419433594	381.4048461914063	-932.1560058593752	-237.3164367675782	369.3527221679688	-909.5151367187502	-257.2781982421876	290.7940063476563	-877.220397949219	-355.3645935058594	181.1194610595703	-904.5611572265627	-330.9767761230469	182.5311431884766	-822.9688720703127	-426.4180297851564	158.6291198730469	-851.7522583007815	-219.739242553711	80.86209106445314	-847.7702636718752	-220.2323608398438	84.54410552978517	-880.3020629882815	-271.5705261230469	70.28203582763673	-929.2581787109377	-251.9468383789063	755.1163940429689	-612.3938598632814	-299.9421081542969	669.0167236328126	-592.5372314453126	-335.2844848632813	509.958709716797	-635.4291381835939	-298.9867858886719	334.7653808593751	-712.5436401367189	-351.5624389648438	250.9265289306641	-662.5480957031251	-318.2783813476563	250.7937927246094	-696.6201782226564	-331.6653747558594	213.9402313232422	-740.8571777343751	-393.4259338378907	127.7417373657227	-703.8093872070314	-376.2062072753907	135.1275634765625	-777.4338989257815	-456.3229370117189	106.6136245727539	-755.7324218750001	-254.5343627929688	54.27827835083009	-775.6433715820315	-249.9261627197266	53.87253570556642	-734.5927124023439	-294.7295227050782	50.85092926025392	-677.3366088867189	-316.5661315917969	796.9082031250002	-575.9173583984376	-275.6359252929688	746.0037231445314	-587.3991088867189	
385	1.92	-283.3024902343751	1723.519653320313	-637.8269042968751	-412.0831298828126	1687.039428710938	-779.1687011718752	-412.506561279297	1676.76904296875	-639.6756591796876	-429.7137451171876	1505.360961914063	-704.3056030273439	-452.576629638672	1214.299072265625	-707.1999511718751	-292.4865722656251	1465.666259765625	-713.8405151367189	-357.5634460449219	1511.683837890625	-848.525817871094	-230.5706024169922	1486.1103515625	-903.9971923828127	-205.3843536376954	1477.662963867188	-862.5928955078127	-163.8771209716797	1482.820678710938	-905.7862548828127	-93.99287414550783	1456.552612304688	-941.3127441406252	-96.04090118408206	1397.573852539063	-931.3009033203127	157.089584350586	1446.123779296875	-863.8177490234377	152.1277008056641	1455.520874023438	-930.3591308593752	231.3956451416016	1451.593383789063	-862.931335449219	-339.3605041503907	1501.652465820313	-581.7176513671876	-216.191879272461	1431.756958007813	-484.4698791503907	-192.7028961181641	1458.755615234375	-518.1419067382814	-147.0521850585938	1427.077514648438	-484.8259582519532	-73.08444213867189	1425.304809570313	-497.7866516113282	-83.01285552978517	1365.665283203125	-511.5491943359376	164.0466766357422	1435.995727539063	-580.2031860351564	175.2476806640625	1439.788208007813	-514.8323364257814	252.135238647461	1446.775756835938	-579.7880249023439	-298.1261901855469	1022.100158691406	-842.9565429687502	-277.7268371582032	1002.928894042969	-634.1947021484376	-449.6561584472657	1082.228515625	-717.5396728515626	-457.0088195800782	1051.887084960938	-748.3497314453126	-449.9466857910157	1048.566772460938	-691.1021728515626	-288.4868164062501	773.2807617187502	-922.6651000976565	-231.5363769531251	709.5239868164064	-921.9258422851565	-189.5799102783203	726.6243286132814	-903.951354980469	-241.2600555419922	650.1244506835939	-914.5891723632815	-229.436508178711	555.5128784179689	-906.0511474609377	-207.3516387939454	409.4548339843751	-878.768005371094	-272.1010437011719	381.4700012207032	-931.875671386719	-236.654281616211	369.5535888671876	-909.3425903320315	-256.1079406738282	290.8056335449219	-876.9564208984377	-353.8112182617188	180.8562927246094	-904.2236938476565	-329.1989135742188	182.1961517333985	-822.6882324218752	-424.8807067871095	158.1515197753907	-851.8147583007815	-217.4308013916016	80.90258789062501	-845.4200439453127	-218.7408294677735	84.3376922607422	-880.064392089844	-270.3283386230469	70.33446502685548	-928.6452636718752	-251.7167358398438	755.1763305664064	-611.4902954101564	-300.0334472656251	668.9629516601564	-592.4005126953126	-335.3918457031251	510.0374450683595	-635.3728637695314	-298.9816589355469	334.7589721679688	-712.5432128906251	-351.5636291503907	250.9223022460938	-662.5394287109376	-318.2834472656251	250.8100280761719	-696.6289062500001	-331.7131652832032	213.9274139404297	-740.9263305664064	-393.3827209472657	127.7590484619141	-703.8065185546876	-376.3154602050782	135.1235656738282	-777.458435058594	-456.3373413085939	106.6330184936524	-755.7268066406251	-331.3029174804688	237.3909301757813	-746.0699462890626	-249.9423065185547	53.9481887817383	-734.6030273437501	-294.6787719726563	50.75654983520509	-677.2842407226564	-316.7431030273438	796.7869262695315	-575.7214965820314	-275.4831542968751	746.7623901367189	-586.4509887695314	
386	1.925	-283.3096923828126	1723.630126953125	-637.8510131835939	-412.363739013672	1687.033447265625	-779.0892333984377	-412.5029907226564	1676.681396484375	-639.5886840820314	-429.715057373047	1505.353149414063	-704.2346801757814	-452.684539794922	1214.394775390625	-706.9735107421876	-292.5519714355469	1465.642456054688	-713.7979736328126	-357.6157226562501	1511.64990234375	-848.4229125976565	-230.6293182373047	1486.005249023438	-903.9709472656252	-205.4235076904297	1477.542358398438	-862.5488281250002	-163.8742828369141	1482.634033203125	-905.801940917969	-94.24356842041017	1456.361450195313	-941.397399902344	-96.2724533081055	1397.386352539063	-931.307312011719	157.2125091552735	1445.942626953125	-863.8934326171877	152.2108612060547	1455.3056640625	-930.302185058594	231.0171508789063	1451.25537109375	-863.0083618164065	-339.3084716796876	1501.59716796875	-581.7232666015626	-216.1804504394532	1431.757568359375	-484.3536682128907	-192.6429290771485	1458.712280273438	-518.0671386718751	-147.0281066894532	1426.997436523438	-484.7289428710939	-73.0625686645508	1425.22509765625	-497.8194885253907	-83.07685852050783	1365.569458007813	-511.5854492187501	164.1020050048828	1435.606689453125	-580.3923339843751	175.2830505371094	1439.416137695313	-514.9944458007814	252.0009307861329	1446.470581054688	-579.9545288085939	-298.6980895996094	1022.175231933594	-842.812927246094	-277.8128967285157	1002.953063964844	-634.0607910156251	-449.8039855957032	1082.311157226563	-717.2655639648439	-457.2887573242189	1052.00537109375	-748.0371704101564	-450.1830139160157	1048.606201171875	-690.8013305664064	-288.7991943359376	773.3544921875002	-922.4963989257815	-231.6036529541016	709.7771606445314	-921.6660156250002	-189.6863708496094	726.9488525390626	-903.7335205078127	-241.1712036132813	650.3602294921876	-914.3984985351565	-229.1306152343751	555.7084960937501	-905.8707275390627	-206.560531616211	409.775604248047	-878.620056152344	-271.3929138183594	381.3622436523438	-931.5792236328127	-235.7155151367188	369.7760314941407	-909.096862792969	-254.9598541259766	291.0014038085938	-876.6768188476565	-352.2889404296876	180.7331848144532	-903.8764648437502	-327.6679077148438	182.1206665039063	-822.4016113281252	-422.9836425781251	158.0228881835938	-850.867858886719	-215.5984039306641	81.0923538208008	-844.4370727539065	-217.1000061035157	84.25069427490236	-879.6885375976565	-268.3283081054688	70.0183792114258	-928.3106079101565	-251.8706817626954	755.1911010742189	-611.3880615234376	-300.0805358886719	668.9796142578126	-592.2604370117189	-335.4279174804688	509.9936828613282	-635.2970581054689	-298.9503479003907	334.7966003417969	-712.5333862304689	-351.5747985839844	250.9280700683594	-662.5336914062501	-318.2043457031251	250.7809753417969	-696.6578369140626	-331.7405700683594	213.9711151123047	-740.8840332031251	-393.4273376464845	127.7672500610352	-703.8353881835939	-376.3431701660157	135.1650543212891	-777.497009277344	-456.4049377441407	106.6127853393555	-755.6765747070314	-257.4664306640626	53.08306884765626	-776.7185668945315	-249.8612976074219	53.9105911254883	-734.5242309570314	-294.8742065429688	50.95898437500001	-677.4152221679689	-316.9309387207032	796.8198852539065	-575.5399780273439	-275.6264648437501	746.7036743164064	-586.3225097656251	
